<?xml version="1.0" standalone="no"?>
<svg viewBox="0 0 200 200" xmlns="http://www.w3.org/2000/svg">
  <path fill="#0F62FE" d="M42.3,-69.4C54.3,-66.3,63.2,-54,64.9,-40.9C66.6,-27.7,61.1,-13.9,63.1,1.1C65.1,16.2,74.5,32.3,71.9,43.8C69.3,55.3,54.5,62.1,40.5,68C26.5,73.9,13.3,78.8,-0.5,79.7C-14.2,80.5,-28.5,77.3,-39.7,69.8C-50.9,62.3,-59.1,50.6,-62.9,38.3C-66.7,25.9,-66.1,13,-68.5,-1.4C-71,-15.8,-76.5,-31.6,-69.8,-38.9C-63.2,-46.3,-44.3,-45.2,-30.7,-47.3C-17,-49.4,-8.5,-54.6,3.3,-60.4C15.1,-66.1,30.3,-72.4,42.3,-69.4Z" transform="translate(100 100)" />
</svg>
